<svg xmlns="http://www.w3.org/2000/svg" width="187" height="76" viewBox="0 0 187 76"><g fill="none" fill-rule="evenodd" stroke="none"><path fill="#fdbd41" d="M82.84 60.766c0 2.47-1.994 4.473-4.455 4.473-2.46 0-4.455-2.002-4.455-4.473 0-2.47 4.455-7.344 4.455-7.344s4.455 4.873 4.455 7.344"/><path stroke="#000" stroke-width="2.235" d="M82.84 60.766c0 2.47-1.994 4.473-4.455 4.473-2.46 0-4.455-2.002-4.455-4.473 0-2.47 4.455-7.344 4.455-7.344s4.455 4.873 4.455 7.344Z"/><path fill="#fff" d="M79.406 45.948l.945-.953a1.005 1.005 0 0 0-.002-1.416l-5.954-5.961a.98.98 0 0 0-.706-.273h-9.38v3.015h8.005c.266 0 .52.249.708.438l4.97 5.079c.39.393 1.024.464 1.414.07"/><path stroke="#000" stroke-width="2" d="M79.406 45.948l.945-.953a1.005 1.005 0 0 0-.002-1.416l-5.954-5.961a.98.98 0 0 0-.706-.273h-9.38v3.015h8.005c.266 0 .52.249.708.438l4.97 5.079c.39.393 1.024.464 1.414.07Z"/><path fill="#9b9b9b" d="M63.085 44.895l.142-12.104 3.029 1.5c.27.148.437.432.434.74l-.065 7.577a.84.84 0 0 1-.447.733Z"/><path stroke="#000" stroke-width="2.235" d="M63.085 44.895l.142-12.104 3.029 1.5c.27.148.437.432.434.74l-.065 7.577a.84.84 0 0 1-.447.733l-3.093 1.554Z"/><path fill="#ff2727" d="M57.474 26.625c-.975.98-2.828.97-3.82-.027L38.419 11.303c-.992-.997-.905-2.761.07-3.74l.168-.17c.976-.978 2.567-.899 3.56.097L57.45 22.786c.993.996 1.168 2.69.193 3.67Zm5.63 19.827.206-22.756c-.001-.743-.273-1.496-.796-2.022L43.88 2.964c-1.982-1.99-5.28-1.944-7.263.047L2.487 37.277c-1.983 1.99-1.765 5.038.217 7.028l28.244 28.358c1.983 1.99 5.035 2.227 7.018.236l24.337-24.435c.527-.529.804-1.264.801-2.012"/><path fill="#9b0000" d="M62.945 45.699l.052-6.467-26.635 26.786a3.04 3.04 0 0 1-4.32 0L2.485 36.292l-.235.237c-2.011 2.021-2.011 5.33 0 7.352l28.18 28.34a5.163 5.163 0 0 0 7.311 0l24.384-24.522c.527-.53.823-1.25.821-2"/><path stroke="#000" stroke-width="2.235" d="M57.593 26.744c-.975.98-2.948.85-3.94-.146L38.419 11.302c-.993-.996-.786-2.641.188-3.62l.17-.17c.974-.978 2.446-1.019 3.439-.022L57.45 22.785c.993.997 1.287 2.81.312 3.79l-.169.17Zm5.657-2.989c-.001-.742-.332-1.437-.855-1.962L43.76 3.083c-1.983-1.99-5.043-1.944-7.026.047L2.606 37.396c-1.983 1.99-2.004 5.037-.021 7.028l28.244 28.358c1.982 1.99 5.155 2.108 7.137.117l24.338-24.435c.526-.529.802-1.265.8-2.012Z"/><path fill="#9b0000" d="M31.51 50.137q.349.35.689.419t.66-.02.603-.312.495-.439l3.108-3.12q.622-.625 1.244-.8a3.1 3.1 0 0 1 1.165-.118q.544.06.981.284t.67.42l.06-.06a4 4 0 0 1-.427-.663 2.6 2.6 0 0 1-.292-.975q-.06-.546.154-1.21.214-.662.933-1.384l2.953-2.965q.232-.234.457-.517.223-.283.31-.605a1.4 1.4 0 0 0 .02-.663q-.069-.34-.418-.692l-1.049-1.054 2.176-2.184 2.467 2.477q.33.332.583.917t.291 1.268a3.9 3.9 0 0 1-.204 1.434q-.242.75-.903 1.413l-3.653 3.668q-.485.487-.63 1.023a2.48 2.48 0 0 0 .213 1.893q.222.4.456.634l-1.69 1.696a3 3 0 0 0-.631-.458 2.8 2.8 0 0 0-.855-.312 2.3 2.3 0 0 0-.962.03q-.505.115-.951.565l-3.77 3.784q-.66.663-1.408.907-.749.243-1.427.205a3.7 3.7 0 0 1-1.263-.292q-.583-.255-.914-.586l-2.466-2.477 2.175-2.185ZM36.21 28.016q-.351-.351-.69-.419a1.4 1.4 0 0 0-.66.02 1.65 1.65 0 0 0-.602.312q-.283.224-.516.458l-2.953 2.965q-.72.722-1.379.935-.66.216-1.205.157a2.6 2.6 0 0 1-.97-.292 4 4 0 0 1-.66-.43l-.06.059q.195.234.418.673.224.439.282.984.059.548-.117 1.17-.175.626-.796 1.25l-3.109 3.12a6 6 0 0 0-.437.497q-.223.283-.31.606a1.4 1.4 0 0 0-.02.663q.068.34.418.692l1.049 1.053-2.176 2.185-2.467-2.477q-.33-.333-.583-.917a3.7 3.7 0 0 1-.291-1.268 3.9 3.9 0 0 1 .204-1.434q.242-.75.903-1.414l3.769-3.784q.446-.449.564-.955.116-.507.028-.967a2.9 2.9 0 0 0-.31-.858 2.8 2.8 0 0 0-.437-.614l1.69-1.697q.213.215.61.44.4.224.875.291.477.07 1.01-.077.535-.147 1.02-.634l3.653-3.667q.66-.663 1.408-.907a3.9 3.9 0 0 1 1.428-.205q.68.04 1.263.293.582.254.913.585l2.467 2.477-2.175 2.184Z"/><path fill="#fff" d="M100.843 64.596c0 .598.336.934.934.934h6.799c.485 0 .821-.15 1.158-.485l1.27-1.27c.336-.337.485-.673.485-1.158V40.055c0-.486-.15-.822-.485-1.158l-1.27-1.27c-.337-.336-.673-.486-1.158-.486h-6.799c-.598 0-.934.336-.934.934Zm6.313-2.129h-2.727V40.204h2.727l.747.747V61.72Zm15.272-24.392c0-.598-.336-.934-.933-.934h-1.719c-.597 0-.934.336-.934.934v26.521c0 .598.337.934.934.934h1.719c.597 0 .933-.336.933-.934ZM138.821 63.4c0-.598-.336-.934-.933-.934h-4.408V52.68h3.66c.598 0 .934-.336.934-.933V50.55c0-.597-.336-.934-.933-.934h-3.661v-9.413h4.333c.598 0 .934-.336.934-.934v-1.195c0-.598-.336-.934-.934-.934h-6.985c-.598 0-.934.336-.934.934v26.521c0 .598.336.934.934.934h7.06c.597 0 .933-.336.933-.934Zm16.393-23.346c0-.486-.149-.822-.485-1.158l-1.27-1.27c-.336-.336-.673-.486-1.158-.486h-4.147c-.485 0-.821.15-1.157.486l-1.27 1.27c-.337.336-.486.672-.486 1.158v9.712c0 .485.15.822.485 1.158l1.27 1.27c.337.336.673.485 1.158.485h2.84l.746.747v8.368l-.747.747H149.5l-.747-.747v-3.512c0-.597-.336-.933-.934-.933H146.1c-.598 0-.934.336-.934.933v4.334c0 .485.15.821.486 1.157l1.27 1.27c.336.337.672.486 1.158.486h4.333c.485 0 .822-.15 1.158-.485l1.27-1.27c.336-.337.485-.673.485-1.158V52.53c0-.486-.149-.822-.485-1.158l-1.27-1.27c-.336-.336-.673-.486-1.158-.486h-2.84l-.746-.747v-7.994l.747-.747h1.307l.747.747v3.55c0 .597.337.933.934.933h1.719c.597 0 .933-.336.933-.934Zm16.17 23.346c0-.598-.337-.934-.935-.934h-4.407V52.68h3.66c.598 0 .934-.336.934-.933V50.55c0-.597-.336-.934-.934-.934h-3.66v-9.413h4.333c.597 0 .934-.336.934-.934v-1.195c0-.598-.337-.934-.934-.934h-6.986c-.597 0-.933.336-.933.934v26.521c0 .598.336.934.933.934h7.06c.598 0 .934-.336.934-.934Zm10.49-.934V38.075c0-.598-.336-.934-.934-.934h-1.718c-.598 0-.934.336-.934.934v26.521c0 .598.336.934.934.934h6.462c.598 0 .934-.336.934-.934v-1.195c0-.598-.336-.934-.934-.934Z"/></g></svg>