<?xml version="1.0" encoding="UTF-8" standalone="no"?>
<svg width="32px" height="32px" viewBox="0 0 32 32" version="1.1" xmlns="http://www.w3.org/2000/svg" xmlns:xlink="http://www.w3.org/1999/xlink" xmlns:sketch="http://www.bohemiancoding.com/sketch/ns">
    <!-- Generator: Sketch 3.4.4 (17249) - http://www.bohemiancoding.com/sketch -->
    <title>document_magnify</title>
    <desc>Created with Sketch.</desc>
    <defs>
        <rect id="path-1" x="0" y="0" width="32" height="32"></rect>
        <rect id="path-3" x="0" y="0" width="32" height="32"></rect>
    </defs>
    <g id="Page-1" stroke="none" stroke-width="1" fill="none" fill-rule="evenodd" sketch:type="MSPage">
        <g id="Desktop-HD" sketch:type="MSArtboardGroup" transform="translate(-141.000000, -1551.000000)">
            <g id="Rectangle-8-Copy-2-+-Truly-Type-Safe-+-Here’s-an-example-of-Copy" sketch:type="MSLayerGroup" transform="translate(120.000000, 1533.000000)">
                <g id="document_magnify" transform="translate(21.000000, 18.000000)">
                    <g id="Layer_1">
                        <rect id="Rectangle-path" fill="#3e3e5b" sketch:type="MSShapeGroup" x="5" y="22" width="12" height="1"></rect>
                        <rect id="Rectangle-path" fill="#3e3e5b" sketch:type="MSShapeGroup" x="5" y="26" width="12" height="1"></rect>
                        <g id="Group">
                            <g id="Clipped">
                                <mask id="mask-2" sketch:name="SVGID_1_" fill="white">
                                    <use xlink:href="#path-1"></use>
                                </mask>
                                <g id="SVGID_1_"></g>
                                <path d="M30.827,18.171 L27.188,14.532 C27.722,13.256 28,11.886 28,10.5 C28,4.71 23.29,0 17.5,0 C12.571,0 8.425,3.413 7.301,8 L2,8 C0.895,8 0,8.895 0,10 L0,30 C0,31.104 0.895,32 2,32 L20,32 C21.104,32 22,31.104 22,30 L22,20.657 L25.172,23.828 C25.926,24.583 26.931,25 28,25 C29.069,25 30.074,24.583 30.829,23.827 C31.583,23.073 32,22.069 32,21 C32,19.931 31.583,18.927 30.827,18.171 L30.827,18.171 Z M20,30 L2,30 L2,10 L7.525,10 C7.517,10.167 7.5,10.331 7.5,10.5 C7.5,11.732 7.735,12.909 8.144,14 L5,14 L5,15 L8.582,15 C9.161,16.144 9.954,17.16 10.908,18 L5,18 L5,19 L12.258,19 C13.785,19.945 15.577,20.5 17.5,20.5 C18.348,20.5 19.185,20.378 20,20.165 L20,30 L20,30 Z M29.414,22.414 C29.024,22.805 28.512,23 28,23 C27.488,23 26.976,22.805 26.586,22.414 L21.921,17.749 C20.632,18.538 19.122,19 17.5,19 C14.252,19 11.432,17.177 10,14.498 L10,14 L9.76,14 C9.276,12.932 9,11.749 9,10.5 C9,5.806 12.806,2 17.5,2 C22.194,2 26,5.806 26,10.5 C26,12.122 25.538,13.632 24.749,14.921 L29.414,19.586 C30.195,20.367 30.195,21.633 29.414,22.414 L29.414,22.414 Z" id="Shape" fill="#3e3e5b" sketch:type="MSShapeGroup" mask="url(#mask-2)"></path>
                            </g>
                            <g id="Clipped">
                                <mask id="mask-4" sketch:name="SVGID_1_" fill="white">
                                    <use xlink:href="#path-3"></use>
                                </mask>
                                <g id="SVGID_1_"></g>
                                <path d="M17.5,4 C13.91,4 11,6.91 11,10.5 C11,14.09 13.91,17 17.5,17 C18.792,17 19.992,16.619 21.004,15.969 C21.792,15.463 22.463,14.792 22.969,14.004 C23.619,12.992 24,11.792 24,10.5 C24,6.91 21.09,4 17.5,4 M22.128,13.463 C21.702,14.126 21.126,14.702 20.464,15.128 C19.575,15.698 18.55,16 17.5,16 C14.467,16 12,13.533 12,10.5 C12,7.467 14.467,5 17.5,5 C20.533,5 23,7.467 23,10.5 C23,11.55 22.698,12.575 22.128,13.463" id="Shape" fill="#FFCD57" sketch:type="MSShapeGroup" mask="url(#mask-4)"></path>
                            </g>
                        </g>
                    </g>
                </g>
            </g>
        </g>
    </g>
</svg>
