<?xml version="1.0" encoding="UTF-8" standalone="no"?>
<svg width="32px" height="32px" viewBox="0 0 32 32" version="1.1" xmlns="http://www.w3.org/2000/svg" xmlns:xlink="http://www.w3.org/1999/xlink" xmlns:sketch="http://www.bohemiancoding.com/sketch/ns">
    <!-- Generator: Sketch 3.4.4 (17249) - http://www.bohemiancoding.com/sketch -->
    <title>pixels</title>
    <desc>Created with Sketch.</desc>
    <defs>
        <rect id="path-1" x="0" y="0" width="32" height="32"></rect>
    </defs>
    <g id="Page-1" stroke="none" stroke-width="1" fill="none" fill-rule="evenodd" sketch:type="MSPage">
        <g id="Desktop-HD" sketch:type="MSArtboardGroup" transform="translate(-961.000000, -1551.000000)">
            <g id="pixels" sketch:type="MSLayerGroup" transform="translate(961.000000, 1551.000000)">
                <g id="Layer_1">
                    <g id="Clipped">
                        <mask id="mask-2" sketch:name="SVGID_1_" fill="white">
                            <use xlink:href="#path-1"></use>
                        </mask>
                        <g id="SVGID_1_"></g>
                        <path d="M30,9 L23,9 L23,2 L30,2 L30,9 L30,9 Z M17,14 L10,14 L10,7 L17,7 L17,14 L17,14 Z M9,14 L2,14 L2,7 L9,7 L9,14 L9,14 Z M25,22 L18,22 L18,15 L25,15 L25,22 L25,22 Z M17,22 L10,22 L10,15 L17,15 L17,22 L17,22 Z M9,22 L2,22 L2,15 L9,15 L9,22 L9,22 Z M25,30 L18,30 L18,23 L25,23 L25,30 L25,30 Z M17,30 L10,30 L10,23 L17,23 L17,30 L17,30 Z M9,30 L2,30 L2,23 L9,23 L9,30 L9,30 Z M30,0 L23,0 C21.896,0 21,0.895 21,2 L21,9 C21,10.105 21.896,11 23,11 L30,11 C31.105,11 32,10.105 32,9 L32,2 C32,0.895 31.105,0 30,0 L30,0 Z M17,5 L2,5 C0.896,5 0,5.895 0,7 L0,30 C0,31.105 0.896,32 2,32 L25,32 C26.105,32 27,31.105 27,30 L27,15 C27,13.895 26.105,13 25,13 L19,13 L19,7 C19,5.895 18.105,5 17,5 L17,5 Z" id="Shape" fill="#553F5C" sketch:type="MSShapeGroup" mask="url(#mask-2)"></path>
                    </g>
                </g>
            </g>
        </g>
    </g>
</svg>