<?xml version="1.0" encoding="UTF-8" standalone="no"?>
<svg width="187px" height="76px" viewBox="0 0 187 76" version="1.1" xmlns="http://www.w3.org/2000/svg" xmlns:xlink="http://www.w3.org/1999/xlink" xmlns:sketch="http://www.bohemiancoding.com/sketch/ns">
    <!-- Generator: Sketch 3.4.4 (17249) - http://www.bohemiancoding.com/sketch -->
    <title>logo</title>
    <desc>Created with Sketch.</desc>
    <defs></defs>
    <g id="Page-1" stroke="none" stroke-width="1" fill="none" fill-rule="evenodd" sketch:type="MSPage">
        <g id="Desktop-HD" sketch:type="MSArtboardGroup" transform="translate(-119.000000, -30.000000)">
            <g id="logo" sketch:type="MSLayerGroup" transform="translate(119.000000, 31.000000)">
                <g id="mark" transform="translate(0.130247, 0.315216)" sketch:type="MSShapeGroup">
                    <g id="drop" transform="translate(72.929204, 51.710843)">
                        <path d="M9.7807837,7.73987977 C9.7807837,10.2104926 7.78625402,12.2130607 5.3255584,12.2130607 C2.86486278,12.2130607 0.870333101,10.2104926 0.870333101,7.73987977 C0.870333101,5.26926692 5.3255584,0.395873804 5.3255584,0.395873804 C5.3255584,0.395873804 9.7807837,5.26926692 9.7807837,7.73987977" id="drop-fill" fill="#FDBD41"></path>
                        <path d="M9.7807837,7.73987977 C9.7807837,10.2104926 7.78625402,12.2130607 5.3255584,12.2130607 C2.86486278,12.2130607 0.870333101,10.2104926 0.870333101,7.73987977 C0.870333101,5.26926692 5.3255584,0.395873804 5.3255584,0.395873804 C5.3255584,0.395873804 9.7807837,5.26926692 9.7807837,7.73987977 L9.7807837,7.73987977 Z" id="drop-stroke" stroke="#000000" stroke-width="2.235"></path>
                    </g>
                    <g id="can">
                        <path d="M79.275823,44.6326234 L80.2209163,43.6799527 C80.6090126,43.2880312 80.6090126,42.6541735 80.219415,42.2637594 L74.2643514,36.3027842 C74.0774346,36.1143604 73.8229575,36.0299465 73.5579711,36.0299465 L64.1791025,36.0299465 L64.1791025,39.0447273 L72.1842454,39.0447273 C72.4499825,39.0447273 72.7044595,39.2934467 72.892127,39.4826242 L77.8608104,44.5617761 C78.2511587,44.9544513 78.8854747,45.0260523 79.275823,44.6326234" id="nozzle-fill" fill="#FFFFFF"></path>
                        <path d="M79.275823,44.6326234 L80.2209163,43.6799527 C80.6090126,43.2880312 80.6090126,42.6541735 80.219415,42.2637594 L74.2643514,36.3027842 C74.0774346,36.1143604 73.8229575,36.0299465 73.5579711,36.0299465 L64.1791025,36.0299465 L64.1791025,39.0447273 L72.1842454,39.0447273 C72.4499825,39.0447273 72.7044595,39.2934467 72.892127,39.4826242 L77.8608104,44.5617761 C78.2511587,44.9544513 78.8854747,45.0260523 79.275823,44.6326234 L79.275823,44.6326234 Z" id="nozzle-stroke" stroke="#000000" stroke-width="2"></path>
                        <path d="M62.9549102,43.5800881 L63.0967868,31.4757433 L66.1257395,32.9755967 C66.3952299,33.123321 66.5626293,33.4082178 66.5596266,33.7164791 L66.495069,41.2926232 C66.4920663,41.6016382 66.320163,41.8835202 66.0476698,42.0259686 L62.9549102,43.5800881 Z" id="attachement-fill" fill="#9B9B9B"></path>
                        <path d="M62.9549102,43.5800881 L63.0967868,31.4757433 L66.1257395,32.9755967 C66.3952299,33.123321 66.5626293,33.4082178 66.5596266,33.7164791 L66.495069,41.2926232 C66.4920663,41.6016382 66.320163,41.8835202 66.0476698,42.0259686 L62.9549102,43.5800881 L62.9549102,43.5800881 Z" id="attachment-stroke" stroke="#000000" stroke-width="2.235"></path>
                        <path d="M57.3441789,25.3100644 C56.3690588,26.2891144 54.5156551,26.2793164 53.5232696,25.2829314 L38.2891765,9.98744111 C37.2967911,8.99105607 37.3838688,7.22665562 38.3582382,6.24760556 L38.5271389,6.07802415 C39.5022589,5.09972779 41.0936789,5.17886578 42.0860644,6.17525083 L57.3201575,21.4707411 C58.3125429,22.4671261 58.4881997,24.1614329 57.5130796,25.140483 L57.3441789,25.3100644 Z M62.9742024,45.1367701 L63.179886,22.3812049 C63.1783846,21.6380614 62.9066422,20.8843662 62.384176,20.3590407 L43.748798,1.64931119 C41.7662791,-0.341197814 38.467836,-0.295222407 36.485317,1.6952866 L2.35686493,35.9612849 C0.373595307,37.9517939 0.591289551,40.9997372 2.57380851,42.9902462 L30.81776,71.3480279 C32.8002789,73.3385369 35.853253,73.5744435 37.835772,71.5839345 L62.1732378,47.1483826 C62.6994573,46.6200423 62.9764544,45.8844358 62.9742024,45.1367701 L62.9742024,45.1367701 Z" id="red-fill" fill="#FF2727"></path>
                        <path d="M62.8151162,44.3834657 L62.8670115,37.9165376 L36.2319575,64.7024784 C35.0391186,65.9020746 33.1054561,65.9020746 31.9126172,64.7024784 L2.35413024,34.9765434 L2.1187213,35.213286 C0.107591965,37.2350519 0.107591965,40.5441526 2.1187213,42.5659185 L30.2985994,70.9054348 C32.3089767,72.9279572 35.599437,72.9279572 37.6098142,70.9054348 L61.9938173,46.3832971 C62.5210431,45.8530846 62.8166204,45.1337807 62.8151162,44.3834657" id="shadow" fill="#9B0000"></path>
                        <path d="M57.4628598,25.4292236 C56.4877397,26.4082737 54.5149795,26.2793918 53.522594,25.2830067 L38.2885009,9.98676279 C37.2961155,8.99037774 37.5025496,7.34581483 38.4769191,6.36676477 L38.6458198,6.19718336 C39.6209398,5.218887 41.0930033,5.17818745 42.0853888,6.1745725 L57.3202325,21.4700627 C58.312618,22.4664478 58.6068806,24.2805921 57.6317605,25.2596422 L57.4628598,25.4292236 L57.4628598,25.4292236 Z M63.1199074,22.4400685 C63.1184061,21.6976787 62.7881114,21.0027717 62.2648945,20.4781999 L43.6295166,1.76771671 C41.6469976,-0.222792299 38.5865168,-0.176063197 36.6039979,1.81444581 L2.47554583,36.0804441 C0.492276204,38.0709531 0.472008119,41.1181427 2.45452708,43.1086517 L30.6984785,71.4671871 C32.6809975,73.4576961 35.8533281,73.5745188 37.835847,71.5840098 L62.1733128,47.148458 C62.6995324,46.6201176 62.9757788,45.8837574 62.9742775,45.1368455 L63.1199074,22.4400685 Z" id="black-stroke" stroke="#000000" stroke-width="2.235"></path>
                        <path d="M31.379261,48.8214352 C31.6119686,49.0550807 31.8424242,49.195268 32.0683759,49.2404897 C32.2950781,49.2864651 32.5157751,49.2796819 32.7289653,49.2208937 C32.9429062,49.1628591 33.1440857,49.0580955 33.3317531,48.9088638 C33.5194206,48.7588785 33.6845679,48.6134153 33.8264445,48.4702132 L36.9349682,45.3491614 C37.3493379,44.9331217 37.7637077,44.6663136 38.1788281,44.5494908 C38.5924471,44.4319144 38.9812941,44.3934759 39.3438676,44.4319144 C39.7064411,44.4718602 40.0337332,44.5660721 40.3249931,44.7160575 C40.6162529,44.8652891 40.8399525,45.0047227 40.9953412,45.135112 L41.0538934,45.0763238 C40.9240276,44.9195552 40.7814003,44.6994762 40.6267623,44.413072 C40.470623,44.1274215 40.3730359,43.8018252 40.3347518,43.4377904 C40.2957169,43.0737557 40.3475131,42.6705287 40.4901404,42.2281097 C40.632017,41.7864443 40.943545,41.3244291 41.4224723,40.8435716 L44.3756073,37.8785347 C44.530996,37.7225198 44.6826313,37.5506773 44.8327652,37.3622535 C44.9813979,37.173076 45.0849903,36.9718394 45.1427919,36.7570362 C45.2013441,36.5429868 45.2073495,36.3221541 45.1623093,36.0937845 C45.1165184,35.8669222 44.9776445,35.6355378 44.7449369,35.4018923 L43.6962511,34.3482264 L45.8716922,32.1640177 L48.3383932,34.6406601 C48.5590902,34.8622465 48.752763,35.1682468 48.9216637,35.5579072 C49.0898137,35.9475676 49.1866501,36.3703906 49.2129236,36.8256225 C49.2384463,37.2808544 49.1701354,37.7586972 49.0087414,38.2591508 C48.8473474,38.7596044 48.5455781,39.2314176 48.1056856,39.6730829 L44.4529263,43.3405638 C44.1293876,43.6654064 43.9184494,44.0068303 43.8223637,44.3640818 C43.7240259,44.722087 43.6985032,45.0597425 43.744294,45.3785556 C43.7893342,45.6973686 43.8861706,45.9898024 44.0355539,46.2566105 C44.1841865,46.5226649 44.3365725,46.7344532 44.4919611,46.8904681 L42.8022034,48.587036 C42.6468148,48.4310211 42.4358765,48.278021 42.1708901,48.1287893 C41.905153,47.978804 41.6198985,47.8755477 41.3158772,47.8167595 C41.0111053,47.7579713 40.6905692,47.7677693 40.3542692,47.8461536 C40.0172184,47.9237842 39.7004358,48.112208 39.4024199,48.411425 L35.6333068,52.1957286 C35.1934143,52.637394 34.723495,52.9403794 34.2250502,53.1024239 C33.7258548,53.2652221 33.2499301,53.3330546 32.7972762,53.307429 C32.3438717,53.2818034 31.9227459,53.183823 31.5346496,53.0149953 C31.1458027,52.8454138 30.8417814,52.6509605 30.6210845,52.4293741 L28.1543835,49.9527317 L30.3298246,47.7677693 L31.379261,48.8214352 Z" id="Fill-19" fill="#9B0000"></path>
                        <path d="M36.07958,26.7010842 C35.8461217,26.466685 35.615666,26.3272514 35.3897144,26.2820297 C35.1622615,26.2360543 34.9423152,26.2428376 34.729125,26.3016258 C34.5151841,26.3596603 34.3147552,26.4636703 34.1270878,26.6136556 C33.9386697,26.7636409 33.767517,26.9158874 33.6121283,27.0719023 L30.6589933,30.0369392 C30.180066,30.5177967 29.7191547,30.8298265 29.2800129,30.9722749 C28.8393697,31.1162307 28.4377613,31.1682356 28.0751878,31.1290435 C27.7126143,31.090605 27.3883249,30.9926247 27.1045718,30.8366098 C26.8185666,30.6805949 26.599371,30.5373928 26.4439823,30.4070035 L26.3854301,30.4657917 C26.5145453,30.6218066 26.6534192,30.8464078 26.8028025,31.1388415 C26.9514351,31.4312753 27.0452688,31.7598864 27.0843037,32.1231675 C27.1233385,32.4879559 27.0843037,32.87837 26.9679499,33.2936561 C26.8508454,33.7096958 26.5858589,34.1264893 26.1714892,34.542529 L23.0629655,37.6628271 C22.9203383,37.8060292 22.7747083,37.9718422 22.6260757,38.160266 C22.4774431,38.3486898 22.3731,38.5506801 22.3152984,38.7654832 C22.2567462,38.9795326 22.2499901,39.2003653 22.295781,39.428735 C22.3408212,39.6555972 22.4804458,39.8869816 22.7139041,40.1206272 L23.7625898,41.1735393 L21.586398,43.3585017 L19.119697,40.8818593 C18.8990001,40.6602729 18.7053273,40.3542727 18.5364266,39.9646122 C18.3682766,39.5749518 18.2706895,39.1521288 18.2451667,38.6968969 C18.2196439,38.241665 18.2872042,37.7638223 18.4493489,37.2633687 C18.6107429,36.7621614 18.9125122,36.2911019 19.3524047,35.8486828 L23.1215178,32.0651329 C23.4195337,31.7659159 23.6064505,31.4471029 23.6852708,31.1094474 C23.7625898,30.771792 23.7723485,30.4499641 23.7137962,30.1432102 C23.655244,29.8379636 23.5516516,29.5515595 23.4030189,29.2855051 C23.2543863,29.018697 23.1087564,28.8144456 22.9661291,28.6712435 L24.6566375,26.9739219 C24.7985141,27.117124 25.0019456,27.2633409 25.2676827,27.4133262 C25.5334199,27.5625578 25.8246797,27.6605382 26.1422131,27.7050062 C26.4597464,27.7517353 26.7960465,27.725356 27.1526146,27.6273756 C27.5076814,27.530149 27.8484855,27.3191143 28.1720242,26.993518 L31.8247835,23.3267909 C32.264676,22.8843718 32.7345953,22.58214 33.2330401,22.4200955 C33.7314848,22.2572974 34.2074095,22.1894648 34.660814,22.2150904 C35.1142186,22.2407161 35.5353444,22.3386965 35.9234406,22.5075242 C36.3115369,22.6771056 36.6163089,22.871559 36.8370058,23.0931453 L39.3037068,25.5697878 L37.1282657,27.7539964 L36.07958,26.7010842 Z" id="Fill-21" fill="#9B0000"></path>
                    </g>
                </g>
                <path d="M100.843301,63.5962709 C100.843301,64.1939346 101.179487,64.5301205 101.77715,64.5301205 L108.575575,64.5301205 C109.061177,64.5301205 109.397363,64.3807046 109.733549,64.0445187 L111.003584,62.7744833 C111.33977,62.4382975 111.489186,62.1021116 111.489186,61.6165099 L111.489186,39.0547046 C111.489186,38.5691028 111.33977,38.2329169 111.003584,37.8967311 L109.733549,36.6266957 C109.397363,36.2905099 109.061177,36.1410939 108.575575,36.1410939 L101.77715,36.1410939 C101.179487,36.1410939 100.843301,36.4772798 100.843301,37.0749435 L100.843301,63.5962709 Z M107.156124,61.4670939 L104.429283,61.4670939 L104.429283,39.2041205 L107.156124,39.2041205 L107.903204,39.9512001 L107.903204,60.7200143 L107.156124,61.4670939 Z M122.428469,37.0749435 C122.428469,36.4772798 122.092283,36.1410939 121.494619,36.1410939 L119.776336,36.1410939 C119.178673,36.1410939 118.842487,36.4772798 118.842487,37.0749435 L118.842487,63.5962709 C118.842487,64.1939346 119.178673,64.5301205 119.776336,64.5301205 L121.494619,64.5301205 C122.092283,64.5301205 122.428469,64.1939346 122.428469,63.5962709 L122.428469,37.0749435 Z M138.821434,62.4009435 C138.821434,61.8032798 138.485248,61.4670939 137.887584,61.4670939 L133.479814,61.4670939 L133.479814,51.6803506 L137.140504,51.6803506 C137.738168,51.6803506 138.074354,51.3441647 138.074354,50.746501 L138.074354,49.5511736 C138.074354,48.9535099 137.738168,48.617324 137.140504,48.617324 L133.479814,48.617324 L133.479814,39.2041205 L137.812876,39.2041205 C138.41054,39.2041205 138.746726,38.8679346 138.746726,38.2702709 L138.746726,37.0749435 C138.746726,36.4772798 138.41054,36.1410939 137.812876,36.1410939 L130.827681,36.1410939 C130.230018,36.1410939 129.893832,36.4772798 129.893832,37.0749435 L129.893832,63.5962709 C129.893832,64.1939346 130.230018,64.5301205 130.827681,64.5301205 L137.887584,64.5301205 C138.485248,64.5301205 138.821434,64.1939346 138.821434,63.5962709 L138.821434,62.4009435 Z M155.214398,39.0547046 C155.214398,38.5691028 155.064982,38.2329169 154.728796,37.8967311 L153.458761,36.6266957 C153.122575,36.2905099 152.786389,36.1410939 152.300788,36.1410939 L148.154496,36.1410939 C147.668894,36.1410939 147.332708,36.2905099 146.996522,36.6266957 L145.726487,37.8967311 C145.390301,38.2329169 145.240885,38.5691028 145.240885,39.0547046 L145.240885,48.76674 C145.240885,49.2523417 145.390301,49.5885276 145.726487,49.9247134 L146.996522,51.1947488 C147.332708,51.5309346 147.668894,51.6803506 148.154496,51.6803506 L150.993398,51.6803506 L151.740478,52.4274302 L151.740478,60.7947223 L150.993398,61.5418019 L149.499239,61.5418019 L148.752159,60.7947223 L148.752159,57.2834479 C148.752159,56.6857842 148.415973,56.3495984 147.81831,56.3495984 L146.100027,56.3495984 C145.502363,56.3495984 145.166177,56.6857842 145.166177,57.2834479 L145.166177,61.6165099 C145.166177,62.1021116 145.315593,62.4382975 145.651779,62.7744833 L146.921814,64.0445187 C147.258,64.3807046 147.594186,64.5301205 148.079788,64.5301205 L152.41285,64.5301205 C152.898451,64.5301205 153.234637,64.3807046 153.570823,64.0445187 L154.840858,62.7744833 C155.177044,62.4382975 155.32646,62.1021116 155.32646,61.6165099 L155.32646,51.5309346 C155.32646,51.0453329 155.177044,50.709147 154.840858,50.3729612 L153.570823,49.1029258 C153.234637,48.76674 152.898451,48.617324 152.41285,48.617324 L149.573947,48.617324 L148.826867,47.8702444 L148.826867,39.8764922 L149.573947,39.1294125 L150.881336,39.1294125 L151.628416,39.8764922 L151.628416,43.4251205 C151.628416,44.0227842 151.964602,44.35897 152.562265,44.35897 L154.280549,44.35897 C154.878212,44.35897 155.214398,44.0227842 155.214398,43.4251205 L155.214398,39.0547046 Z M171.383239,62.4009435 C171.383239,61.8032798 171.047053,61.4670939 170.449389,61.4670939 L166.041619,61.4670939 L166.041619,51.6803506 L169.70231,51.6803506 C170.299973,51.6803506 170.636159,51.3441647 170.636159,50.746501 L170.636159,49.5511736 C170.636159,48.9535099 170.299973,48.617324 169.70231,48.617324 L166.041619,48.617324 L166.041619,39.2041205 L170.374681,39.2041205 C170.972345,39.2041205 171.308531,38.8679346 171.308531,38.2702709 L171.308531,37.0749435 C171.308531,36.4772798 170.972345,36.1410939 170.374681,36.1410939 L163.389487,36.1410939 C162.791823,36.1410939 162.455637,36.4772798 162.455637,37.0749435 L162.455637,63.5962709 C162.455637,64.1939346 162.791823,64.5301205 163.389487,64.5301205 L170.449389,64.5301205 C171.047053,64.5301205 171.383239,64.1939346 171.383239,63.5962709 L171.383239,62.4009435 Z M181.874274,61.4670939 L181.874274,37.0749435 C181.874274,36.4772798 181.538088,36.1410939 180.940425,36.1410939 L179.222142,36.1410939 C178.624478,36.1410939 178.288292,36.4772798 178.288292,37.0749435 L178.288292,63.5962709 C178.288292,64.1939346 178.624478,64.5301205 179.222142,64.5301205 L185.684381,64.5301205 C186.282044,64.5301205 186.61823,64.1939346 186.61823,63.5962709 L186.61823,62.4009435 C186.61823,61.8032798 186.282044,61.4670939 185.684381,61.4670939 L181.874274,61.4670939 Z" id="DIESEL" fill="#FFFFFF" sketch:type="MSShapeGroup"></path>
            </g>
        </g>
    </g>
</svg>