<?xml version="1.0" encoding="UTF-8" standalone="no"?>
<svg width="210px" height="85px" viewBox="0 0 210 85" version="1.1" xmlns="http://www.w3.org/2000/svg" xmlns:xlink="http://www.w3.org/1999/xlink" xmlns:sketch="http://www.bohemiancoding.com/sketch/ns">
    <!-- Generator: Sketch 3.4.4 (17249) - http://www.bohemiancoding.com/sketch -->
    <title>Page 1 + DIESEL</title>
    <desc>Created with Sketch.</desc>
    <defs></defs>
    <g id="Page-1" stroke="none" stroke-width="1" fill="none" fill-rule="evenodd" sketch:type="MSPage">
        <g id="Desktop-HD" sketch:type="MSArtboardGroup" transform="translate(-119.000000, -30.000000)">
            <g id="Page-1-+-DIESEL" sketch:type="MSLayerGroup" transform="translate(119.000000, 31.000000)">
                <g id="Page-1" transform="translate(0.146447, 0.353553)" sketch:type="MSShapeGroup">
                    <g id="Fill-1-+-Stroke-3" transform="translate(82.000000, 58.000000)">
                        <path d="M10.9972991,8.68121649 C10.9972991,11.4523093 8.75469358,13.698433 5.98794128,13.698433 C3.22118899,13.698433 0.978583486,11.4523093 0.978583486,8.68121649 C0.978583486,5.91012371 5.98794128,0.444020619 5.98794128,0.444020619 C5.98794128,0.444020619 10.9972991,5.91012371 10.9972991,8.68121649" id="Fill-1" fill="#FDBD41"></path>
                        <path d="M10.9972991,8.68121649 C10.9972991,11.4523093 8.75469358,13.698433 5.98794128,13.698433 C3.22118899,13.698433 0.978583486,11.4523093 0.978583486,8.68121649 C0.978583486,5.91012371 5.98794128,0.444020619 5.98794128,0.444020619 C5.98794128,0.444020619 10.9972991,5.91012371 10.9972991,8.68121649 L10.9972991,8.68121649 Z" id="Stroke-3" stroke="#000000" stroke-width="2.235"></path>
                    </g>
                    <path d="M89.136,50.0609155 L90.1986422,48.9923794 C90.6350092,48.5527918 90.6350092,47.8418433 90.1969541,47.4039464 L83.501211,40.7179876 C83.2910459,40.5066474 83.0049174,40.411967 82.7069725,40.411967 L72.161578,40.411967 L72.161578,43.7934103 L81.1623853,43.7934103 C81.4611743,43.7934103 81.7473028,44.0723794 81.9583119,44.2845649 L87.5449908,49.9814515 C87.9838899,50.4218845 88.6971009,50.5021938 89.136,50.0609155" id="Fill-5" fill="#FFFFFF"></path>
                    <path d="M89.136,50.0609155 L90.1986422,48.9923794 C90.6350092,48.5527918 90.6350092,47.8418433 90.1969541,47.4039464 L83.501211,40.7179876 C83.2910459,40.5066474 83.0049174,40.411967 82.7069725,40.411967 L72.161578,40.411967 L72.161578,43.7934103 L81.1623853,43.7934103 C81.4611743,43.7934103 81.7473028,44.0723794 81.9583119,44.2845649 L87.5449908,49.9814515 C87.9838899,50.4218845 88.6971009,50.5021938 89.136,50.0609155 L89.136,50.0609155 Z" id="Stroke-7" stroke="#000000" stroke-width="2"></path>
                    <path d="M70.7851229,48.8803691 L70.9446459,35.3038742 L74.3503339,36.9861423 C74.6533431,37.151833 74.8415633,37.4713794 74.8381872,37.817132 L74.7656,46.314699 C74.7622239,46.6612969 74.5689394,46.9774619 74.2625541,47.1372351 L70.7851229,48.8803691 Z" id="Fill-9" fill="#9B9B9B"></path>
                    <path d="M70.7851229,48.8803691 L70.9446459,35.3038742 L74.3503339,36.9861423 C74.6533431,37.151833 74.8415633,37.4713794 74.8381872,37.817132 L74.7656,46.314699 C74.7622239,46.6612969 74.5689394,46.9774619 74.2625541,47.1372351 L70.7851229,48.8803691 L70.7851229,48.8803691 Z" id="Stroke-11" stroke="#000000" stroke-width="2.235"></path>
                    <path d="M64.4765394,28.3883155 C63.3801358,29.4864392 61.2962092,29.4754495 60.1803927,28.3578825 L43.0515119,11.2021299 C41.9356954,10.0845629 42.0336037,8.1055732 43.1291633,7.00744948 L43.3190716,6.8172433 C44.4154752,5.71996495 46.204833,5.80872784 47.3206495,6.92629485 L64.4495303,24.0820474 C65.5653468,25.1996144 65.7628514,27.0999856 64.6664477,28.1981093 L64.4765394,28.3883155 Z M70.8068147,50.6263773 L71.0380807,25.1032433 C71.0363927,24.2697175 70.7308514,23.4243567 70.1434018,22.8351402 L49.1901908,1.84990309 C46.9610899,-0.382694845 43.2523927,-0.331127835 41.0232917,1.9014701 L2.65000734,40.3349546 C0.420062385,42.5675526 0.664833028,45.9861918 2.89393394,48.2187897 L34.6508147,80.0254907 C36.8799156,82.2580887 40.3126128,82.5226866 42.5417138,80.2900887 L69.9062275,52.8826454 C70.4978972,52.2900474 70.8093468,51.4649753 70.8068147,50.6263773 L70.8068147,50.6263773 Z" id="Fill-13" fill="#FF2727"></path>
                    <path d="M70.6279416,49.7814548 L70.6862915,42.5280084 L40.7384198,72.5716987 C39.3972179,73.9171918 37.2230501,73.9171918 35.8818482,72.5716987 L2.6469325,39.2304474 L2.38224385,39.4959829 C0.12097405,41.7636393 0.12097405,45.4751982 2.38224385,47.7428546 L34.0670819,79.5290688 C36.3275061,81.7975736 40.0272276,81.7975736 42.2876518,79.5290688 L69.7044911,52.0245089 C70.2972922,51.4298111 70.6296329,50.6230243 70.6279416,49.7814548" id="Fill-15" fill="#9B0000"></path>
                    <path d="M64.6099817,28.521967 C63.513578,29.6200907 61.2954495,29.475534 60.179633,28.357967 L43.0507523,11.2013691 C41.9349358,10.0838021 42.1670459,8.23922474 43.2626055,7.14110103 L43.4525138,6.95089485 C44.5489174,5.85361649 46.2040734,5.80796701 47.3198899,6.92553402 L64.4496147,24.0812866 C65.5654312,25.1988536 65.8962936,27.2336371 64.7998899,28.3317608 L64.6099817,28.521967 L64.6099817,28.521967 Z M70.9706422,25.169266 C70.9689541,24.3365856 70.597578,23.5571629 70.0092844,22.9687918 L49.0560734,1.98270928 C46.8269725,-0.24988866 43.3858349,-0.197476289 41.1567339,2.03512165 L2.78344954,40.4686062 C0.553504587,42.7012041 0.530715596,46.1189979 2.75981651,48.3515959 L34.5166972,80.1591423 C36.7457982,82.3917402 40.3126972,82.5227711 42.5417982,80.2901732 L69.9063119,52.8827299 C70.4979817,52.290132 70.8085872,51.4642144 70.8068991,50.6264619 L70.9706422,25.169266 Z" id="Stroke-17" stroke="#000000" stroke-width="2.235"></path>
                    <path d="M35.2821541,54.7591773 C35.5438055,55.0212392 35.8029248,55.1784763 36.0569798,55.2291979 C36.3118789,55.2807649 36.5600257,55.2731567 36.7997321,55.2072186 C37.0402826,55.1421258 37.2664844,55.0246206 37.4774936,54.8572392 C37.6885028,54.6890124 37.8741908,54.5258577 38.0337138,54.3652392 L41.5288697,50.8646 C41.994778,50.3979608 42.4606862,50.0987031 42.9274385,49.9676722 C43.3925028,49.8357959 43.8297138,49.7926825 44.2373835,49.8357959 C44.6450532,49.8806 45.0130532,49.9862701 45.3405394,50.1544969 C45.6680257,50.3218784 45.9195486,50.4782701 46.0942642,50.6245175 L46.1600991,50.5585794 C46.0140807,50.3827443 45.8537138,50.135899 45.6798422,49.8146619 C45.5042826,49.4942701 45.3945578,49.1290742 45.3515119,48.7207649 C45.307622,48.3124557 45.3658606,47.8601876 45.5262275,47.3639608 C45.6857505,46.8685794 46.0360257,46.3503732 46.5745211,45.811033 L49.8949615,42.4853835 C50.0696771,42.3103938 50.2401725,42.1176515 50.4089798,41.9063113 C50.5760991,41.6941258 50.6925761,41.4684144 50.757567,41.2274866 C50.8234018,40.9874041 50.8301541,40.7397134 50.7795119,40.4835691 C50.7280257,40.2291155 50.5718789,39.9695897 50.3102275,39.7075278 L49.1311083,38.5257134 L51.5771266,36.0758577 L54.3506312,38.8537134 C54.598778,39.1022495 54.8165394,39.445466 55.0064477,39.8825175 C55.1955119,40.3195691 55.3043927,40.7938165 55.3339339,41.3044144 C55.3626312,41.8150124 55.2858239,42.3509711 55.104356,42.9122907 C54.9228881,43.4736103 54.5835853,44.0028062 54.0889798,44.4981876 L49.9818972,48.6117134 C49.6181174,48.9760639 49.3809431,49.3590124 49.2729064,49.7597134 C49.1623376,50.1612598 49.1336404,50.5399814 49.1851266,50.8975691 C49.2357688,51.2551567 49.3446495,51.5831567 49.5126128,51.8824144 C49.6797321,52.1808268 49.8510716,52.4183732 50.0257872,52.5933629 L48.1258606,54.4962701 C47.951145,54.3212804 47.7139706,54.1496722 47.4160257,53.9822907 C47.1172367,53.8140639 46.7965028,53.6982495 46.4546679,53.6323113 C46.111989,53.5663732 45.7515853,53.5773629 45.3734569,53.6652804 C44.9944844,53.7523526 44.6383009,53.9636928 44.3032183,54.299301 L40.0653101,58.5438577 C39.5707046,59.0392392 39.0423376,59.3790742 38.4818972,59.5608268 C37.9206128,59.7434247 37.3854936,59.8195072 36.8765394,59.7907649 C36.3667413,59.7620227 35.8932367,59.6521258 35.4568697,59.4627649 C35.0196587,59.2725588 34.6778239,59.0544557 34.4296771,58.8059196 L31.6561725,56.0280639 L34.1021908,53.5773629 L35.2821541,54.7591773 Z" id="Fill-19" fill="#9B0000"></path>
                    <path d="M40.5670899,29.9485134 C40.3045945,29.6856062 40.0454752,29.5292144 39.7914202,29.4784928 C39.5356771,29.4269258 39.2883743,29.434534 39.0486679,29.5004722 C38.8081174,29.5655649 38.5827596,29.6822247 38.3717505,29.8504515 C38.1598972,30.0186784 37.9674569,30.1894412 37.7927413,30.3644309 L34.4723009,33.6900804 C33.9338055,34.2294206 33.415567,34.5794 32.9218055,34.7391732 C32.426356,34.9006371 31.9747963,34.958967 31.5671266,34.9150082 C31.1594569,34.8718948 30.794833,34.7619979 30.4757872,34.5870082 C30.1542092,34.4120186 29.9077505,34.2514 29.7330349,34.1051526 L29.6672,34.1710907 C29.8123743,34.3460804 29.9685211,34.5979979 30.1364844,34.9259979 C30.3036037,35.2539979 30.4091083,35.6225753 30.4529982,36.0300392 C30.4968881,36.4391938 30.4529982,36.8770907 30.3221725,37.3428845 C30.1905028,37.8095237 29.8925578,38.2770082 29.4266495,38.7436474 L25.9314936,42.2434412 C25.7711266,42.4040598 25.6073835,42.5900392 25.4402642,42.8013794 C25.273145,43.0127196 25.1558239,43.2392763 25.090833,43.4802041 C25.0249982,43.7202866 25.0174018,43.9679773 25.0688881,44.2241216 C25.1195303,44.4785753 25.2765211,44.738101 25.5390165,45.0001629 L26.7181358,46.181132 L24.2712734,48.631833 L21.4977688,45.8539773 C21.249622,45.6054412 21.0318606,45.2622247 20.8419523,44.8251732 C20.6528881,44.3881216 20.5431633,43.9138742 20.5144661,43.4032763 C20.4857688,42.8926784 20.5617321,42.3567196 20.744044,41.7954 C20.9255119,41.2332351 21.2648147,40.7048845 21.7594202,40.2086577 L25.9973284,35.9649464 C26.332411,35.6293381 26.5425761,35.2717505 26.6312,34.8930289 C26.7181358,34.5143072 26.7291083,34.1533381 26.6632734,33.8092763 C26.5974385,33.4669052 26.4809615,33.145668 26.3138422,32.8472557 C26.1467229,32.5479979 25.9829798,32.3189052 25.8226128,32.1582866 L27.7233835,30.254534 C27.8829064,30.4151526 28.1116404,30.5791526 28.4104294,30.7473794 C28.7092183,30.9147608 29.0367046,31.0246577 29.3937321,31.074534 C29.7507596,31.1269464 30.1288881,31.0973588 30.5298055,30.9874619 C30.9290349,30.8784103 31.3122275,30.6417093 31.6760073,30.2765134 L35.7830899,26.163833 C36.2776954,25.6676062 36.8060624,25.3286165 37.3665028,25.1468639 C37.9269431,24.964266 38.4620624,24.8881835 38.9718606,24.9169258 C39.4816587,24.945668 39.9551633,25.0555649 40.3915303,25.2449258 C40.8278972,25.435132 41.1705761,25.6532351 41.4187229,25.9017711 L44.1922275,28.6796268 L41.7462092,31.1294825 L40.5670899,29.9485134 Z" id="Fill-21" fill="#9B0000"></path>
                </g>
                <text id="DIESEL" sketch:type="MSTextLayer" font-family="Abolition" font-size="42" font-weight="normal" line-spacing="46" letter-spacing="5.5999999" fill="#FFFFFF">
                    <tspan x="112" y="72">DIESE</tspan>
                    <tspan x="198.968" y="72">L</tspan>
                </text>
            </g>
        </g>
    </g>
</svg>